<svg width="40" height="40" viewBox="0 0 40 40" fill="none" xmlns="http://www.w3.org/2000/svg">
<path d="M19.9997 21.6666C20.9201 21.6666 21.6663 20.9204 21.6663 19.9999C21.6663 19.0794 20.9201 18.3333 19.9997 18.3333C19.0792 18.3333 18.333 19.0794 18.333 19.9999C18.333 20.9204 19.0792 21.6666 19.9997 21.6666Z" stroke="white" stroke-width="3" stroke-linecap="round" stroke-linejoin="round"/>
<path d="M20.0003 28.3334C24.6027 28.3334 28.3337 24.6025 28.3337 20.0001C28.3337 15.3977 24.6027 11.6667 20.0003 11.6667C15.398 11.6667 11.667 15.3977 11.667 20.0001C11.667 24.6025 15.398 28.3334 20.0003 28.3334Z" stroke="white" stroke-width="3" stroke-linecap="round" stroke-linejoin="round"/>
<path d="M26.5 33.5166V33.5333" stroke="white" stroke-width="3" stroke-linecap="round" stroke-linejoin="round"/>
<path d="M31.7334 29.3501V29.3668" stroke="white" stroke-width="3" stroke-linecap="round" stroke-linejoin="round"/>
<path d="M34.6162 23.3333V23.3499" stroke="white" stroke-width="3" stroke-linecap="round" stroke-linejoin="round"/>
<path d="M34.6162 16.6667V16.6834" stroke="white" stroke-width="3" stroke-linecap="round" stroke-linejoin="round"/>
<path d="M31.7334 10.6499V10.6666" stroke="white" stroke-width="3" stroke-linecap="round" stroke-linejoin="round"/>
<path d="M26.5 6.4834V6.50007" stroke="white" stroke-width="3" stroke-linecap="round" stroke-linejoin="round"/>
<path d="M20 5V5.01667" stroke="white" stroke-width="3" stroke-linecap="round" stroke-linejoin="round"/>
<path d="M13.5 6.4834V6.50007" stroke="white" stroke-width="3" stroke-linecap="round" stroke-linejoin="round"/>
<path d="M8.2666 10.6499V10.6666" stroke="white" stroke-width="3" stroke-linecap="round" stroke-linejoin="round"/>
<path d="M5.38379 16.6667V16.6834" stroke="white" stroke-width="3" stroke-linecap="round" stroke-linejoin="round"/>
<path d="M5.38379 23.3333V23.3499" stroke="white" stroke-width="3" stroke-linecap="round" stroke-linejoin="round"/>
<path d="M8.2666 29.3501V29.3668" stroke="white" stroke-width="3" stroke-linecap="round" stroke-linejoin="round"/>
<path d="M13.5 33.5166V33.5333" stroke="white" stroke-width="3" stroke-linecap="round" stroke-linejoin="round"/>
<path d="M20 35V35.0167" stroke="white" stroke-width="3" stroke-linecap="round" stroke-linejoin="round"/>
</svg>
